<svg version="1.0" preserveAspectRatio="xMidYMid meet" viewBox="137.8556094224924 0 159.41337386018236 219.631494084" zoomAndPan="magnify" xmlns:xlink="http://www.w3.org/1999/xlink" xmlns="http://www.w3.org/2000/svg" style="max-height: 500px" width="159.41337386018236" height="219.631494084"><defs><g/><clipPath id="df0754c1ae"><path clip-rule="nonzero" d="M 136 0 L 302 0 L 302 165 L 136 165 Z M 136 0"/></clipPath><clipPath id="af9be5644c"><path clip-rule="nonzero" d="M 136.753906 8.699219 L 293.082031 -0.0117188 L 301.796875 156.316406 L 145.464844 165.027344 Z M 136.753906 8.699219"/></clipPath><clipPath id="d1fe38e91d"><path clip-rule="nonzero" d="M 5 0 L 161 0 L 161 161 L 5 161 Z M 5 0"/></clipPath><clipPath id="1901c0d507"><path clip-rule="nonzero" d="M 0.753906 8.699219 L 157.082031 -0.0117188 L 165.796875 156.316406 L 9.464844 165.027344 Z M 0.753906 8.699219"/></clipPath><clipPath id="8c58393de0"><path clip-rule="nonzero" d="M 156.828125 0 L 0.496094 8.714844 L 9.210938 165.042969 L 165.539062 156.332031 Z M 156.828125 0"/></clipPath><clipPath id="a6ddb4ebe9"><rect height="165" y="0" width="166" x="0"/></clipPath><clipPath id="f2b4a2b1e3"><path clip-rule="nonzero" d="M 155.671875 55.277344 L 263.550781 55.277344 L 263.550781 162 L 155.671875 162 Z M 155.671875 55.277344"/></clipPath></defs><g clip-path="url(#df0754c1ae)"><g clip-path="url(#af9be5644c)"><g transform="matrix(1, 0, 0, 1, 136, 0.000000000000030382)"><g clip-path="url(#a6ddb4ebe9)"><g clip-path="url(#d1fe38e91d)"><g clip-path="url(#1901c0d507)"><g clip-path="url(#8c58393de0)"><path fill-rule="nonzero" fill-opacity="1" d="M 9.523438 83.203125 L 75.804688 9.097656 C 78.5 6.128906 82.300781 4.15625 86.59375 3.914062 L 141.21875 0.871094 C 149.84375 0.390625 157.214844 6.984375 157.695312 15.609375 L 160.742188 70.234375 C 160.980469 74.566406 159.445312 78.566406 156.75 81.53125 L 90.433594 155.679688 C 87.78125 158.644531 83.976562 160.617188 79.683594 160.859375 C 75.394531 161.097656 71.355469 159.5625 68.386719 156.90625 L 10.71875 105.328125 C 7.75 102.636719 5.777344 98.832031 5.539062 94.539062 C 5.296875 90.207031 6.835938 86.207031 9.523438 83.203125 Z M 131.6875 40.542969 C 138.164062 40.179688 143.101562 34.660156 142.742188 28.183594 C 142.378906 21.707031 136.859375 16.769531 130.382812 17.132812 C 123.90625 17.492188 118.96875 23.011719 119.332031 29.488281 C 119.691406 35.964844 125.210938 40.902344 131.6875 40.542969 Z M 131.6875 40.542969" fill="#ffffff"/></g></g></g></g></g></g></g><path fill-rule="evenodd" fill-opacity="1" d="M 156.945312 107.566406 C 158.34375 109.71875 173.128906 116.035156 177.457031 114.722656 C 179.09375 113.089844 178.941406 105.613281 179.910156 103.699219 C 182.277344 111.136719 177.195312 151.664062 177.046875 158.007812 C 183.359375 162.414062 230.421875 161.941406 241.488281 159.316406 C 243.191406 156.910156 237.398438 121.242188 237.980469 104.925781 C 239.101562 106.558594 239.738281 110.847656 240.027344 112.683594 C 244.589844 113.992188 261.183594 110.234375 262.410156 108.191406 C 262.453125 104.105469 251.066406 72.667969 248.203125 71.035156 C 244.988281 68.265625 225.511719 61.570312 222.742188 58.515625 C 222.101562 58.160156 221.597656 57.257812 221.242188 56.742188 C 218.046875 58.210938 202.289062 58.785156 199.359375 56.496094 C 198.652344 57.34375 198.726562 57.882812 197.660156 58.371094 C 195.617188 58.371094 177.566406 66.925781 171.558594 71.765625 C 167.222656 76.898438 156.191406 104.96875 156.945312 107.566406 Z M 156.945312 107.566406" fill="#000000"/><g clip-path="url(#f2b4a2b1e3)"><path fill-rule="evenodd" fill-opacity="1" d="M 199.140625 55.273438 C 196.011719 59.679688 187.589844 61.191406 182.390625 64.738281 C 177.253906 67.875 170.523438 69.75 168.089844 75.800781 C 163.109375 85.902344 158.492188 95.535156 155.8125 106.496094 C 157.554688 111.726562 165.207031 112.578125 169.871094 114.6875 C 171.441406 115.097656 174.691406 116.015625 176.753906 115.535156 C 178.417969 114.054688 178.894531 111.179688 179.734375 106.203125 C 182.023438 115.890625 176.710938 143.085938 176.023438 158.308594 C 180.296875 161.851562 188.722656 160.6875 194.953125 161.402344 C 210.566406 161.910156 228.582031 161.121094 243.042969 160.570312 C 242.390625 155.351562 241.625 148.65625 241.742188 143.15625 C 240.730469 133.167969 239.007812 123.578125 238.5 113.546875 C 238.175781 112.871094 238.269531 109.039062 238.050781 107.136719 C 239.4375 110.03125 240.304688 113.453125 240.324219 114.085938 C 243.367188 113.550781 253.421875 112.261719 256.183594 111.691406 C 259.113281 111.527344 261.839844 111.160156 263.386719 109.972656 C 263.332031 108.582031 262.503906 105.972656 261.933594 101.707031 C 258.46875 91.207031 255.0625 80.519531 249.601562 70.867188 C 244.492188 66.511719 237.050781 65.589844 231.105469 62.550781 C 225.871094 61.070312 224.078125 58.34375 220.492188 56.226562 C 213.882812 58.0625 206.882812 58.796875 199.140625 55.273438 Z M 199.667969 57.4375 C 206.429688 59.417969 213.847656 59.160156 220.699219 57.777344 C 225.46875 62.839844 233.078125 63.769531 239.160156 66.847656 C 245.378906 68.652344 250.875 73.171875 252.328125 79.777344 C 255.984375 88.863281 259.691406 99.039062 261.804688 108.617188 C 255.480469 111.398438 247.753906 111.859375 240.835938 111.570312 C 241.496094 108.085938 236.75 99.550781 236.796875 107.167969 C 236.832031 124.257812 241.09375 142.148438 241.390625 159.210938 C 224.429688 160.449219 205.941406 161.003906 188.871094 159.921875 C 182.980469 159.605469 174.875 158.773438 178.414062 150.6875 C 179.589844 135.621094 182.132812 120.3125 181.242188 105.175781 C 178.351562 97.835938 177.964844 110.988281 176.742188 113.566406 C 170.027344 113.421875 162.644531 111.125 157.082031 107.535156 C 159.824219 96.449219 164.882812 85.042969 170.0625 74.878906 C 173.425781 69.078125 180.625 67.367188 186.085938 64.023438 C 190.148438 61.34375 196.082031 60.472656 199.667969 57.4375 Z M 199.667969 57.4375" fill="#000000"/></g><g fill-opacity="1" fill="#ffffff"><g transform="translate(146.250625, 186.303174)"><g><path d="M 23.75 -29.25 L 9.671875 -29.25 L 9.671875 -19.75 L 21.859375 -19.75 L 21.859375 -14.59375 L 9.671875 -14.59375 L 9.671875 -5.09375 L 23.75 -5.09375 L 23.75 0 L 4.0625 0 L 4.0625 -34.34375 L 23.75 -34.34375 Z M 23.75 -29.25"/></g></g></g><g fill-opacity="1" fill="#ffffff"><g transform="translate(176.030652, 186.303174)"><g><path d="M 29.296875 0 L 22.71875 0 L 14.484375 -12.9375 L 6.234375 0 L -0.34375 0 L 11.453125 -17.515625 L 0.171875 -34.34375 L 6.703125 -34.34375 L 14.484375 -22.140625 L 22.3125 -34.34375 L 28.78125 -34.34375 L 17.515625 -17.5625 Z M 29.296875 0"/></g></g></g><g fill-opacity="1" fill="#ffffff"><g transform="translate(208.099686, 186.303174)"><g><path d="M 33.875 -34.34375 L 39.828125 -34.34375 L 39.828125 0 L 34.28125 0 L 34.28125 -23.6875 L 23.640625 0 L 19.921875 0 L 9.390625 -23.640625 L 9.390625 0 L 3.78125 0 L 3.78125 -34.34375 L 9.78125 -34.34375 L 21.796875 -7.4375 Z M 33.875 -34.34375"/></g></g></g><g fill-opacity="1" fill="#ffffff"><g transform="translate(254.818297, 186.303174)"><g><path d="M 20.09375 0.453125 C 17.644531 0.453125 15.363281 -0.00390625 13.25 -0.921875 C 11.132812 -1.835938 9.265625 -3.101562 7.640625 -4.71875 C 6.015625 -6.34375 4.742188 -8.210938 3.828125 -10.328125 C 2.910156 -12.441406 2.453125 -14.722656 2.453125 -17.171875 C 2.453125 -19.609375 2.910156 -21.882812 3.828125 -24 C 4.742188 -26.125 6.015625 -27.992188 7.640625 -29.609375 C 9.265625 -31.234375 11.132812 -32.503906 13.25 -33.421875 C 15.363281 -34.335938 17.644531 -34.796875 20.09375 -34.796875 C 23.445312 -34.796875 26.488281 -33.945312 29.21875 -32.25 C 31.945312 -30.550781 34.050781 -28.328125 35.53125 -25.578125 L 30.734375 -23 C 29.742188 -24.90625 28.300781 -26.421875 26.40625 -27.546875 C 24.519531 -28.679688 22.414062 -29.25 20.09375 -29.25 C 17.832031 -29.25 15.785156 -28.710938 13.953125 -27.640625 C 12.128906 -26.566406 10.679688 -25.125 9.609375 -23.3125 C 8.546875 -21.507812 8.015625 -19.460938 8.015625 -17.171875 C 8.015625 -14.878906 8.546875 -12.828125 9.609375 -11.015625 C 10.679688 -9.203125 12.128906 -7.757812 13.953125 -6.6875 C 15.785156 -5.625 17.832031 -5.09375 20.09375 -5.09375 C 22.414062 -5.09375 24.519531 -5.664062 26.40625 -6.8125 C 28.300781 -7.957031 29.742188 -9.460938 30.734375 -11.328125 L 35.53125 -8.75 C 34.050781 -6.007812 31.945312 -3.789062 29.21875 -2.09375 C 26.488281 -0.394531 23.445312 0.453125 20.09375 0.453125 Z M 20.09375 0.453125"/></g></g></g><g fill-opacity="1" fill="#ffffff"><g transform="translate(160.00979, 213.246711)"><g><path d="M 5.1875 -10.796875 C 5.75 -10.796875 6.253906 -10.660156 6.703125 -10.390625 C 7.160156 -10.128906 7.519531 -9.769531 7.78125 -9.3125 C 8.050781 -8.851562 8.1875 -8.347656 8.1875 -7.796875 C 8.1875 -7.242188 8.050781 -6.738281 7.78125 -6.28125 C 7.519531 -5.820312 7.160156 -5.460938 6.703125 -5.203125 C 6.253906 -4.941406 5.75 -4.8125 5.1875 -4.8125 L 2.46875 -4.8125 L 2.46875 0 L 1.3125 0 L 1.3125 -10.796875 Z M 5.078125 -5.90625 C 5.617188 -5.90625 6.082031 -6.066406 6.46875 -6.390625 C 6.851562 -6.722656 7.046875 -7.1875 7.046875 -7.78125 C 7.046875 -8.351562 6.851562 -8.8125 6.46875 -9.15625 C 6.082031 -9.507812 5.617188 -9.6875 5.078125 -9.6875 L 2.46875 -9.6875 L 2.46875 -5.90625 Z M 5.078125 -5.90625"/></g></g></g><g fill-opacity="1" fill="#ffffff"><g transform="translate(175.996016, 213.246711)"><g><path d="M 1.40625 0 L 1.40625 -10.796875 L 2.5625 -10.796875 L 2.5625 0 Z M 1.40625 0"/></g></g></g><g fill-opacity="1" fill="#ffffff"><g transform="translate(187.428954, 213.246711)"><g><path d="M 2.46875 -1.15625 L 6.484375 -1.15625 L 6.484375 0 L 1.3125 0 L 1.3125 -10.796875 L 2.46875 -10.796875 Z M 2.46875 -1.15625"/></g></g></g><g fill-opacity="1" fill="#ffffff"><g transform="translate(201.561469, 213.246711)"><g><path d="M 6.421875 0.140625 C 5.660156 0.140625 4.945312 0 4.28125 -0.28125 C 3.613281 -0.570312 3.023438 -0.972656 2.515625 -1.484375 C 2.003906 -1.992188 1.601562 -2.582031 1.3125 -3.25 C 1.019531 -3.914062 0.875 -4.632812 0.875 -5.40625 C 0.875 -6.175781 1.019531 -6.890625 1.3125 -7.546875 C 1.601562 -8.210938 2.003906 -8.800781 2.515625 -9.3125 C 3.023438 -9.820312 3.613281 -10.222656 4.28125 -10.515625 C 4.945312 -10.804688 5.660156 -10.953125 6.421875 -10.953125 C 7.460938 -10.953125 8.40625 -10.691406 9.25 -10.171875 C 10.101562 -9.660156 10.769531 -8.984375 11.25 -8.140625 L 10.265625 -7.578125 C 9.890625 -8.253906 9.363281 -8.789062 8.6875 -9.1875 C 8.007812 -9.59375 7.253906 -9.796875 6.421875 -9.796875 C 5.617188 -9.796875 4.882812 -9.597656 4.21875 -9.203125 C 3.550781 -8.816406 3.019531 -8.289062 2.625 -7.625 C 2.226562 -6.957031 2.03125 -6.21875 2.03125 -5.40625 C 2.03125 -4.582031 2.226562 -3.835938 2.625 -3.171875 C 3.019531 -2.503906 3.550781 -1.976562 4.21875 -1.59375 C 4.882812 -1.207031 5.617188 -1.015625 6.421875 -1.015625 C 7.253906 -1.015625 8.007812 -1.21875 8.6875 -1.625 C 9.363281 -2.03125 9.890625 -2.5625 10.265625 -3.21875 L 11.25 -2.671875 C 10.769531 -1.828125 10.101562 -1.144531 9.25 -0.625 C 8.40625 -0.113281 7.460938 0.140625 6.421875 0.140625 Z M 6.421875 0.140625"/></g></g></g><g fill-opacity="1" fill="#ffffff"><g transform="translate(220.895164, 213.246711)"><g><path d="M 8.421875 -10.796875 L 9.578125 -10.796875 L 9.578125 0 L 8.421875 0 L 8.421875 -4.828125 L 2.46875 -4.828125 L 2.46875 0 L 1.3125 0 L 1.3125 -10.796875 L 2.46875 -10.796875 L 2.46875 -5.984375 L 8.421875 -5.984375 Z M 8.421875 -10.796875"/></g></g></g><g fill-opacity="1" fill="#ffffff"><g transform="translate(239.275014, 213.246711)"><g><path d="M 7.828125 0 L 6.953125 -2.515625 L 2.140625 -2.515625 L 1.265625 0 L 0 0 L 3.90625 -10.796875 L 5.1875 -10.796875 L 9.09375 0 Z M 2.515625 -3.625 L 6.578125 -3.625 L 4.5625 -9.4375 Z M 2.515625 -3.625"/></g></g></g><g fill-opacity="1" fill="#ffffff"><g transform="translate(255.855143, 213.246711)"><g><path d="M 4.03125 0.140625 C 3.226562 0.140625 2.507812 -0.0546875 1.875 -0.453125 C 1.25 -0.859375 0.796875 -1.390625 0.515625 -2.046875 L 1.5625 -2.671875 C 1.757812 -2.171875 2.070312 -1.769531 2.5 -1.46875 C 2.925781 -1.164062 3.441406 -1.015625 4.046875 -1.015625 C 4.648438 -1.015625 5.160156 -1.164062 5.578125 -1.46875 C 6.003906 -1.78125 6.21875 -2.226562 6.21875 -2.8125 C 6.21875 -3.25 6.085938 -3.609375 5.828125 -3.890625 C 5.578125 -4.179688 5.25 -4.421875 4.84375 -4.609375 C 4.445312 -4.796875 4.023438 -4.976562 3.578125 -5.15625 C 3.140625 -5.332031 2.71875 -5.539062 2.3125 -5.78125 C 1.90625 -6.019531 1.578125 -6.320312 1.328125 -6.6875 C 1.078125 -7.050781 0.953125 -7.523438 0.953125 -8.109375 C 0.953125 -8.691406 1.085938 -9.195312 1.359375 -9.625 C 1.628906 -10.050781 1.992188 -10.378906 2.453125 -10.609375 C 2.910156 -10.835938 3.414062 -10.953125 3.96875 -10.953125 C 4.582031 -10.953125 5.140625 -10.820312 5.640625 -10.5625 C 6.140625 -10.300781 6.539062 -9.976562 6.84375 -9.59375 L 5.9375 -8.84375 C 5.5 -9.476562 4.851562 -9.796875 4 -9.796875 C 3.488281 -9.796875 3.046875 -9.660156 2.671875 -9.390625 C 2.296875 -9.128906 2.109375 -8.726562 2.109375 -8.1875 C 2.109375 -7.757812 2.234375 -7.410156 2.484375 -7.140625 C 2.734375 -6.878906 3.054688 -6.65625 3.453125 -6.46875 C 3.859375 -6.28125 4.285156 -6.097656 4.734375 -5.921875 C 5.179688 -5.753906 5.601562 -5.546875 6 -5.296875 C 6.40625 -5.054688 6.734375 -4.738281 6.984375 -4.34375 C 7.234375 -3.957031 7.359375 -3.457031 7.359375 -2.84375 C 7.359375 -2.21875 7.207031 -1.679688 6.90625 -1.234375 C 6.613281 -0.785156 6.210938 -0.441406 5.703125 -0.203125 C 5.203125 0.0234375 4.644531 0.140625 4.03125 0.140625 Z M 4.03125 0.140625"/></g></g></g></svg>